<?xml version="1.0" encoding="iso-8859-1"?>
<!-- Generator: Adobe Illustrator 16.0.0, SVG Export Plug-In . SVG Version: 6.00 Build 0)  -->
<!DOCTYPE svg PUBLIC "-//W3C//DTD SVG 1.1//EN" "http://www.w3.org/Graphics/SVG/1.1/DTD/svg11.dtd">
<svg version="1.1" id="Capa_1" xmlns="http://www.w3.org/2000/svg" xmlns:xlink="http://www.w3.org/1999/xlink" x="0px" y="0px"
	 width="516.301px" height="516.301px" viewBox="0 0 516.301 516.301" style="enable-background:new 0 0 516.301 516.301;"
	 xml:space="preserve">
<g>
	<g>
		<path d="M434.1,172.101H70.7c-3.8,5.7-5.7,13.4-7.7,19.1h384.4C443.699,183.601,439.801,177.801,434.1,172.101z"/>
		<path d="M353.801,133.801c-21,0-38.201,5.7-55.5,15.3c-3.801-5.7-9.602-11.5-13.4-15.3H97.5c-5.7,5.7-11.5,11.5-15.3,19.1H415
			C397.801,141.5,376.699,133.801,353.801,133.801z"/>
		<path d="M455.1,210.301H59.3c-1.9,5.7-1.9,13.4-1.9,19.1H459C457.1,223.701,457.1,216.101,455.1,210.301z"/>
		<path d="M191.2,95.601c-24.9,0-49.7,7.7-68.9,19.1H260C241,103.201,216.1,95.601,191.2,95.601z"/>
		<path d="M0,325.101c0,5.699,0,13.4,1.9,19.1h512.5c1.9-5.699,1.9-13.4,1.9-19.1H0z"/>
		<path d="M19.1,382.501h478.099c3.801-5.701,7.602-11.5,11.5-19.1H7.6C11.4,371.001,15.3,376.7,19.1,382.501z"/>
		<path d="M478.1,248.601H38.2c-7.7,5.7-13.4,11.5-19.1,19.1h478.099C491.5,260.101,485.699,254.301,478.1,248.601z"/>
		<path d="M95.6,420.7h325.099c21,0,42.102-7.6,57.4-19.1H38.2C53.5,413.101,74.6,420.7,95.6,420.7z"/>
		<path d="M508.699,286.8H7.6c-1.9,5.701-3.8,13.4-5.7,19.102h512.5C512.5,300.2,510.6,292.601,508.699,286.8z"/>
	</g>
</g>
<g>
</g>
<g>
</g>
<g>
</g>
<g>
</g>
<g>
</g>
<g>
</g>
<g>
</g>
<g>
</g>
<g>
</g>
<g>
</g>
<g>
</g>
<g>
</g>
<g>
</g>
<g>
</g>
<g>
</g>
</svg>
