<?xml version="1.0" encoding="iso-8859-1"?>
<!-- Generator: Adobe Illustrator 16.0.0, SVG Export Plug-In . SVG Version: 6.00 Build 0)  -->
<!DOCTYPE svg PUBLIC "-//W3C//DTD SVG 1.1//EN" "http://www.w3.org/Graphics/SVG/1.1/DTD/svg11.dtd">
<svg version="1.1" id="Capa_1" xmlns="http://www.w3.org/2000/svg" xmlns:xlink="http://www.w3.org/1999/xlink" x="0px" y="0px"
	 width="638.758px" height="638.758px" viewBox="0 0 638.758 638.758" style="enable-background:new 0 0 638.758 638.758;"
	 xml:space="preserve">
<g>
	<g>
		<g>
			<path d="M231.235,309.109c-1.656-1.617-3.946-2.387-6.198-2.368c-1.136,0-2.252,0.154-3.465,0.462l-96.69,25.986l-8.201,2.195
				c-10.221,3.369-19.73,8.988-27.738,16.979c-13.687,13.646-20.52,31.627-20.52,49.527c0,17.941,6.814,35.844,20.52,49.529
				c13.648,13.668,31.588,20.502,49.51,20.482h0.039c17.902,0,35.823-6.834,49.471-20.482c8.008-7.988,13.609-17.479,16.958-27.545
				l2.252-8.432l25.987-96.71c0.308-1.155,0.443-2.291,0.443-3.388c0-2.31-0.751-4.582-2.368-6.218V309.109L231.235,309.109z
				 M539.055,329.148c-1.617-1.617-3.869-2.406-6.199-2.406c-1.097,0-2.252,0.172-3.388,0.5l-96.729,25.947l-8.2,2.215
				c-10.222,3.387-19.73,8.971-27.738,16.979c-13.687,13.666-20.559,31.607-20.559,49.527c0,17.922,6.872,35.863,20.559,49.529
				c13.647,13.668,31.627,20.521,49.51,20.521c17.94,0,35.861-6.854,49.548-20.521c8.008-7.988,13.609-17.459,16.959-27.525
				l2.252-8.471l25.91-96.672c0.347-1.154,0.481-2.309,0.481-3.406c0-2.311-0.751-4.562-2.406-6.18V329.148z"/>
			<polygon points="335.684,403.875 242.188,403.875 206.577,511.441 270.909,511.441 233.006,635.389 237.703,638.758 
				369.043,460.736 304.172,460.736 			"/>
			<path d="M512.394,139.809C501.422,61.464,434.722,1.001,353.508,0.077C353.123,0.058,352.488,0,351.622,0
				C280.11,0,219.589,46.18,197.818,110.3c-39.25,9.336-71.242,37.036-86.623,73.533c-54.515,2.964-97.788,47.989-97.826,103.197
				c0.039,36.189,18.653,67.912,46.738,86.373c4.1-11.299,10.606-21.732,19.403-30.51c9.24-9.24,20.347-16.074,33.013-20.213
				l0.385-0.115l0.385-0.096l8.162-2.195l96.69-25.967c2.175-0.616,4.543-0.943,6.892-0.943c6.044,0,11.626,2.233,15.708,6.314
				c4.062,4.1,6.275,9.682,6.275,15.708c0,2.175-0.308,4.485-0.982,6.776l-18.345,68.316h141.368
				c4.101-10.203,10.261-19.557,18.269-27.584c9.277-9.26,20.385-16.055,33.013-20.213l0.385-0.135l0.365-0.115l8.239-2.176
				l96.671-25.967c1.983-0.578,4.428-0.943,6.872-0.943c6.083,0,11.588,2.214,15.688,6.294c4.062,4.043,6.313,9.645,6.275,15.747
				c0,2.193-0.308,4.523-0.943,6.795l-10.799,40.174c48.009-17.672,82.253-63.504,82.292-117.615
				C625.331,199.675,575.821,146.219,512.394,139.809z"/>
		</g>
	</g>
</g>
<g>
</g>
<g>
</g>
<g>
</g>
<g>
</g>
<g>
</g>
<g>
</g>
<g>
</g>
<g>
</g>
<g>
</g>
<g>
</g>
<g>
</g>
<g>
</g>
<g>
</g>
<g>
</g>
<g>
</g>
</svg>
