<?xml version="1.0" encoding="iso-8859-1"?>
<!-- Generator: Adobe Illustrator 17.1.0, SVG Export Plug-In . SVG Version: 6.00 Build 0)  -->
<!DOCTYPE svg PUBLIC "-//W3C//DTD SVG 1.1//EN" "http://www.w3.org/Graphics/SVG/1.1/DTD/svg11.dtd">
<svg version="1.1" id="Capa_1" xmlns="http://www.w3.org/2000/svg" xmlns:xlink="http://www.w3.org/1999/xlink" x="0px" y="0px"
	 viewBox="0 0 299 299" style="enable-background:new 0 0 299 299;" xml:space="preserve">
<path d="M291.5,141.5h-24.696l9.096-9.142c2.922-2.936,2.91-7.685-0.026-10.606c-2.938-2.922-7.685-2.909-10.606,0.026
	l-16.989,17.074l-16.989-17.074c-2.923-2.936-7.672-2.948-10.607-0.026c-2.936,2.922-2.948,7.67-0.026,10.606l9.096,9.142H166.4
	l34.172-34.172l32.895,0.172c0.007,0,0.014,0,0.02,0c4.134,0,7.489-3.44,7.5-7.575c0.011-4.143-3.339-7.604-7.48-7.614l-17.896-0.02
	l11.745-11.745l29.355-0.046c0.006,0,0.013,0,0.013,0c4.14,0,7.495-3.21,7.506-7.346c0.011-4.142-3.339-7.373-7.481-7.383
	l-14.548-0.069l12.661-12.661c2.929-2.93,2.929-7.678,0-10.607c-2.93-2.928-7.678-2.928-10.607,0L231.425,55.26l-0.075-15.073
	c-0.021-4.129-3.375-7.687-7.499-7.687c-0.013,0-0.026,0-0.039,0c-4.142,0-7.482,3.538-7.462,7.681l0.151,30.004l-11.524,11.522
	l-0.09-17.91c-0.02-4.129-3.375-7.297-7.499-7.297c-0.013,0-0.026,0-0.039,0c-4.142,0-7.482,3.287-7.462,7.43l0,32.702
	l-32.72,32.554V69.25l9.314,9.102c1.464,1.456,3.46,2.184,5.373,2.184c1.926,0,3.892-0.737,5.358-2.21
	c2.922-2.937,2.931-7.685-0.006-10.606l-17.064-16.989l17.079-16.989c2.937-2.922,2.951-7.67,0.029-10.606
	c-2.923-2.936-7.837-2.948-10.772-0.026l-9.313,9.102V7.5c0-4.143-3.357-7.5-7.5-7.5c-4.143,0-7.5,3.357-7.5,7.5v25.642
	l-9.982-10.047c-2.942-2.913-7.608-2.891-10.523,0.054c-2.914,2.943-2.849,7.692,0.095,10.607l17.166,16.975l-17.135,16.975
	c-2.944,2.914-2.962,7.663-0.048,10.606c2.915,2.944,7.5,2.967,10.443,0.054l9.985-10.047V131.6l-34.355-34.521l0.373-32.99
	c0.036-4.142-3.209-7.588-7.351-7.588c-0.022,0-0.044,0-0.066,0c-4.111,0-7.463,3.301-7.499,7.421l-0.16,18.287l-9.917-9.917
	l0.075-29.094c0.011-4.143-3.339-7.697-7.48-7.697c-0.007,0-0.014,0-0.02,0c-4.134,0-7.489,3.508-7.5,7.644L68.23,57.33
	l-14.189-14.19c-2.93-2.928-7.678-2.928-10.607,0c-2.929,2.93-2.929,7.678,0,10.607l14.864,14.865l-15.447,0.06
	c-4.142,0.021-7.482,3.338-7.462,7.48c0.021,4.129,3.374,7.347,7.499,7.347c0.013,0,0.026,0,0.039,0l30.127-0.132l9.363,9.363
	L64.748,92.5c-0.027,0-0.054,0-0.081,0c-4.104,0-7.454,3.378-7.498,7.493c-0.043,4.142,3.279,7.607,7.421,7.651l33.089,0.349
	l33.507,33.507H69.263l9.096-9.142c2.922-2.936,2.91-7.685-0.026-10.606c-2.938-2.922-7.685-2.909-10.606,0.026l-16.989,17.074
	l-16.989-17.074c-2.923-2.936-7.672-2.948-10.607-0.026c-2.937,2.922-2.948,7.67-0.026,10.606l9.096,9.142H7.5
	c-4.143,0-7.5,3.357-7.5,7.5s3.357,7.5,7.5,7.5h25.654l-10.054,10.155c-2.914,2.943-2.89,7.692,0.054,10.606
	c1.462,1.447,3.369,2.17,5.276,2.17c1.932,0,3.863-0.742,5.33-2.224l16.976-17.146l16.974,17.146
	c1.467,1.482,3.398,2.224,5.33,2.224c1.907,0,3.814-0.723,5.276-2.17c2.943-2.914,2.968-7.663,0.054-10.606L68.317,156.5h61.868
	l-32.581,32.581l-32.611,0.241c-4.142,0.029-7.477,3.468-7.449,7.61c0.028,4.125,3.38,7.567,7.499,7.567c0.017,0,0.034,0,0.052,0
	l17.259-0.168l-9.472,9.471L42.926,213.5c-0.013,0-0.025,0-0.038,0c-4.124,0-7.479,3.521-7.499,7.651
	c-0.021,4.142,3.32,7.704,7.463,7.725l14.904,0.054l-14.322,14.322c-2.929,2.93-2.929,7.678,0,10.607
	c1.465,1.464,3.385,2.196,5.304,2.196c1.919,0,3.839-0.732,5.304-2.196l14.188-14.189l0.037,14.492
	c0.011,4.136,3.366,7.337,7.5,7.337c0.006,0,0.013,0,0.02,0c4.142,0,7.491-3.336,7.48-7.479l-0.076-29.313l10.193-10.191
	l0.261,18.52c0.058,4.105,3.404,7.463,7.497,7.463c0.035,0,0.071,0,0.107,0c4.142,0,7.452-3.518,7.394-7.659l-0.631-33.118
	l34.156-34.322v65.282l-9.982-10.047c-2.942-2.912-7.608-2.891-10.523,0.054c-2.914,2.943-2.849,7.692,0.095,10.606l17.166,16.975
	l-17.135,16.975c-2.944,2.914-2.962,7.663-0.048,10.607c2.915,2.944,7.5,2.967,10.443,0.054l9.985-10.047V291.5
	c0,4.143,3.357,7.5,7.5,7.5c4.143,0,7.5-3.357,7.5-7.5v-24.709l9.314,9.102c1.464,1.456,3.46,2.184,5.373,2.184
	c1.926,0,3.892-0.737,5.358-2.21c2.922-2.937,2.931-7.685-0.006-10.606l-17.064-16.989l17.079-16.989
	c2.937-2.922,2.951-7.67,0.029-10.606c-2.923-2.936-7.837-2.948-10.772-0.026l-9.313,9.102v-61.936l32.365,32.198l0.649,32.362
	c0.072,4.098,3.498,7.125,7.579,7.125c0.045,0,0.09,0,0.134,0c4.142,0,7.44-3.269,7.368-7.41l-0.296-16.811l10.072,10.073
	l-0.153,30.473c-0.02,4.143,3.32,7.675,7.462,7.675c0.014,0,0.026,0,0.039,0c4.124,0,7.479-3.46,7.499-7.589l0.078-15.634
	l14.289,14.289c1.465,1.464,3.385,2.196,5.304,2.196c1.919,0,3.839-0.732,5.304-2.196c2.929-2.93,2.929-7.678,0-10.607
	l-13.548-13.547l13.969-0.025c4.143-0.011,7.492-3.34,7.481-7.48c-0.011-4.137-3.366-7.406-7.5-7.406c-0.006,0-0.013,0-0.013,0
	l-28.781,0.067l-11.458-11.458l18.966-0.319c4.142-0.063,7.448-3.569,7.385-7.71c-0.063-4.104-3.407-7.58-7.497-7.58
	c-0.038,0-0.077,0-0.116,0l-33.777,0.569L167.4,156.5h63.295l-10.054,10.154c-2.914,2.943-2.891,7.691,0.054,10.606
	c1.462,1.447,3.369,2.17,5.276,2.17c1.932,0,3.863-0.742,5.33-2.224l16.975-17.146l16.974,17.146
	c1.467,1.482,3.398,2.224,5.33,2.224c1.907,0,3.814-0.723,5.276-2.17c2.943-2.914,2.968-7.663,0.054-10.606L265.858,156.5H291.5
	c4.143,0,7.5-3.357,7.5-7.5S295.643,141.5,291.5,141.5z"/>
<g>
</g>
<g>
</g>
<g>
</g>
<g>
</g>
<g>
</g>
<g>
</g>
<g>
</g>
<g>
</g>
<g>
</g>
<g>
</g>
<g>
</g>
<g>
</g>
<g>
</g>
<g>
</g>
<g>
</g>
</svg>
