<?xml version="1.0" encoding="iso-8859-1"?>
<!-- Generator: Adobe Illustrator 16.0.0, SVG Export Plug-In . SVG Version: 6.00 Build 0)  -->
<!DOCTYPE svg PUBLIC "-//W3C//DTD SVG 1.1//EN" "http://www.w3.org/Graphics/SVG/1.1/DTD/svg11.dtd">
<svg version="1.1" id="Capa_1" xmlns="http://www.w3.org/2000/svg" xmlns:xlink="http://www.w3.org/1999/xlink" x="0px" y="0px"
	 width="591.201px" height="591.202px" viewBox="0 0 591.201 591.202" style="enable-background:new 0 0 591.201 591.202;"
	 xml:space="preserve">
<g>
	<g>
		<path d="M533.7,201.85c1.899-7.7,1.899-13.4,1.899-21c0-53.5-42.1-95.6-95.6-95.6c-36.3,0-66.9,19.1-84.1,47.8
			c-11.5-5.7-24.9-9.6-40.2-9.6c-32.5,0-61.2,19.1-76.5,45.9c24.9,7.7,45.9,23,63.1,42.1c15.3-7.6,32.5-11.5,49.7-11.5
			c63.1,0,116.7,47.8,124.3,110.9c17.2,9.601,32.5,24.9,42.101,42.101c40.199-1.9,72.699-36.301,72.699-76.5
			C593,240.05,568.1,209.45,533.7,201.85z"/>
		<path d="M459.1,322.35c0-57.4-47.8-103.3-105.199-103.3c-21,0-38.2,5.7-55.5,15.3c-24.9-32.5-63.101-53.5-107.101-53.5
			c-74.6,0-133.9,59.3-133.9,133.9c0,1.899,0,5.7,0,7.6C23,337.65,0,370.15,0,410.35c0,53.5,42.1,95.601,95.6,95.601h325.1
			c53.5,0,95.6-42.101,95.6-95.601C516.5,370.15,493.5,337.65,459.1,322.35z"/>
	</g>
</g>
<g>
</g>
<g>
</g>
<g>
</g>
<g>
</g>
<g>
</g>
<g>
</g>
<g>
</g>
<g>
</g>
<g>
</g>
<g>
</g>
<g>
</g>
<g>
</g>
<g>
</g>
<g>
</g>
<g>
</g>
</svg>
